<svg width="16" height="16" viewBox="0 0 16 16" fill="none" xmlns="http://www.w3.org/2000/svg">
<path d="M13.8067 12.5028L11.54 10.3056C12.2713 9.39975 12.6681 8.28118 12.6667 7.12965C12.6667 6.10411 12.3539 5.10161 11.7678 4.24891C11.1818 3.39621 10.3489 2.73161 9.37431 2.33916C8.39977 1.9467 7.32742 1.84402 6.29285 2.04409C5.25829 2.24416 4.30798 2.738 3.5621 3.46317C2.81622 4.18833 2.30827 5.11224 2.10248 6.11807C1.89669 7.12389 2.00231 8.16646 2.40598 9.11393C2.80965 10.0614 3.49323 10.8712 4.37029 11.441C5.24736 12.0107 6.2785 12.3148 7.33334 12.3148C8.51777 12.3163 9.6683 11.9305 10.6 11.2195L12.86 13.4232C12.922 13.4839 12.9957 13.5321 13.077 13.565C13.1582 13.5979 13.2453 13.6149 13.3333 13.6149C13.4213 13.6149 13.5085 13.5979 13.5897 13.565C13.671 13.5321 13.7447 13.4839 13.8067 13.4232C13.8692 13.3629 13.9188 13.2912 13.9526 13.2122C13.9864 13.1333 14.0039 13.0485 14.0039 12.963C14.0039 12.8774 13.9864 12.7927 13.9526 12.7137C13.9188 12.6347 13.8692 12.563 13.8067 12.5028ZM3.33334 7.12965C3.33334 6.3605 3.56793 5.60862 4.00746 4.96909C4.44698 4.32957 5.0717 3.83112 5.8026 3.53678C6.53351 3.24244 7.33777 3.16543 8.1137 3.31548C8.88962 3.46553 9.60235 3.83591 10.1618 4.37979C10.7212 4.92366 11.1021 5.61659 11.2565 6.37096C11.4108 7.12533 11.3316 7.90726 11.0289 8.61786C10.7261 9.32846 10.2134 9.93582 9.55562 10.3631C8.89782 10.7905 8.12446 11.0185 7.33334 11.0185C6.27247 11.0185 5.25505 10.6088 4.50491 9.8795C3.75476 9.1502 3.33334 8.16104 3.33334 7.12965Z" fill="black"/>
</svg>
